<svg xmlns="http://www.w3.org/2000/svg" width="20" height="18" fill="none"><path stroke="#2F1F19" stroke-width="1.5" d="M10.9584 15.9687c-.394.2712-.7223.4887-.9568.6413-.23469-.1526-.5633-.3702-.95762-.6415-.8242-.567-1.93083-1.3657-3.06485-2.2943-1.13664-.9308-2.28554-1.9798-3.20344-3.0463-.93017-1.08081-1.56328-2.11171-1.76506-3.00561l-.00824-.03651-.01183-.0355C.83543 7.08482.75 6.58823.75 6.07025c0-1.80987 1.01571-3.3922 2.52929-4.21883C3.98541 1.46908 4.78983 1.25 5.64814 1.25c1.52183 0 2.87897.68166 3.7803 1.75009l.57466.68113.573-.68247C11.4719 1.93186 12.8297 1.25 14.3495 1.25c.8613 0 1.6672.21938 2.3707.60123 1.5143.8281 2.5298 2.41017 2.5298 4.21902 0 .51639-.0862 1.01378-.2416 1.48003l-.0118.0354-.0082.03639c-.2021.89415-.8353 1.92517-1.7651 3.00593-.9176 1.0666-2.0659 2.1156-3.2019 3.0464-1.1334.9286-2.2394 1.7273-3.063 2.2943Z"/></svg>
