<svg xmlns="http://www.w3.org/2000/svg" width="80" height="20" fill="none"><path fill="#946952" fill-rule="evenodd" d="M0 4.96468h5.20197c.60427 0 1.21182.04364 1.82266.13092.61084.08728 1.15928.26184 1.64532.52369.47979.25602.88696.63408 1.18227 1.09772.30218.46997.45318 1.09437.45318 1.87318 0 .80567-.22 1.47371-.66008 2.00411-.44007.5304-1.02135.9097-1.74384 1.138v.0403c.45977.0671.87685.198 1.25123.3927.36351.1863.69071.4389.96549.7453.2693.3021.4762.6546.6207 1.0574.1463.4132.2197.8497.2168 1.2891 0 .752-.1577 1.3797-.4729 1.8832-.3093.4976-.72754.9148-1.22172 1.2186-.49918.3089-1.06075.5304-1.68473.6647-.62397.1343-1.24466.2014-1.86207.2014H0V4.96468Zm3.07389 5.70012h2.2266A3.0651 3.0651 0 0 0 6 10.5842c.22988-.0537.43678-.141.62069-.2618.18391-.1209.33169-.282.44335-.48343.11166-.20141.16749-.44311.16749-.7251 0-.29541-.0624-.54047-.1872-.73517-.1205-.19065-.28668-.34665-.48275-.45319a2.26688 2.26688 0 0 0-.66995-.23163 3.9362 3.9362 0 0 0-.72907-.07049H3.07389v3.04141Zm0 5.9015h2.75862c.23646 0 .47619-.0269.71921-.0806.2355-.0505.45949-.1461.6601-.2819.19705-.1343.35797-.3089.48276-.5237.1248-.2149.18719-.4767.18719-.7856 0-.3357-.0821-.6076-.2463-.8157-.16474-.2085-.3782-.3713-.62069-.4733a3.12645 3.12645 0 0 0-.80788-.2216 5.87318 5.87318 0 0 0-.80789-.0604H3.07389v3.2428ZM12.7291 4.96468h3.0739V19.225h-3.0739V4.96468Zm1.6354-.92652c-.2364 0-.4532-.047-.6502-.14099-.1939-.09163-.368-.22171-.5123-.38269-.1456-.16278-.2622-.35021-.3449-.5539-.0852-.20721-.1287-.42983-.128-.65461 0-.21484.0427-.42297.128-.62439.0814-.19535.1985-.37307.3449-.52368.1445-.14771.312-.26856.5024-.36255.1937-.09473.406-.14296.6207-.141.4598 0 .8604.15442 1.202.46326.3415.30884.5123.70496.5123 1.18836 0 .48341-.1576.89295-.4729 1.22865-.3153.33569-.7159.50354-1.202.50354Zm4.2365.92652h4.1773l5.9311 9.90972h.0394V4.96468h3.0739V19.225H27.803L21.7143 9.07359h-.0394V19.225H18.601V4.96468Zm20.6502 0h2.5419l6.069 14.26032h-3.468l-1.202-3.0212h-5.4187l-1.1626 3.0212h-3.3891l6.0295-14.26032Zm1.1823 4.14919L38.7389 13.545h3.4089l-1.7143-4.43113Zm8.5123 8.37893c0-.2551.046-.4968.1379-.7251.092-.2283.2201-.4263.3843-.5942.1642-.1678.3579-.2987.5813-.3927.225-.0944.4661-.1423.7093-.141.2496 0 .4861.047.7094.141.2233.094.4171.2249.5813.3927.1642.1679.2922.3659.3842.5942.0919.2283.1379.47.1379.7251 0 .2552-.046.4969-.1379.7251-.0881.2223-.2187.4243-.3842.5942-.1642.1679-.358.2988-.5813.3928-.2251.0943-.4661.1422-.7094.141a1.81145 1.81145 0 0 1-.7093-.141c-.2175-.09-.4151-.2236-.5813-.3928-.1642-.1678-.2923-.3659-.3843-.5942-.0923-.23-.1391-.4764-.1379-.7251ZM59.6847 4.96468h2.5419l6.069 14.26032h-3.468l-1.202-3.0212h-5.4187l-1.1626 3.0212h-3.3891l6.0295-14.26032Zm1.1823 4.14919L59.1724 13.545h3.4089L60.867 9.11387Zm8.0985 7.21073 7.0739-8.58036h-6.8177V4.96468h10.5418v2.77956l-6.9359 8.58036H80v2.9004H68.9655v-2.9004Z" clip-rule="evenodd"/></svg>
